<?xml version="1.0" encoding="UTF-8"?>
<svg xmlns="http://www.w3.org/2000/svg" version="1.1" viewBox="0 0 850.39 283.46">
  <defs>
    <style>
      .cls-1 {
        fill: #70798c;
      }

      .cls-1, .cls-2, .cls-3 {
        stroke-width: 0px;
      }

      .cls-2 {
        fill: #dad2bc;
      }

      .cls-3 {
        fill: #252323;
      }
    </style>
  </defs>
  <g id="Layer_1" data-name="Layer 1">
    <rect class="cls-2" x="-2" y="-4" width="859" height="294"/>
  </g>
  <g id="Layer_2" data-name="Layer 2">
    <g>
      <path class="cls-1" d="M381.1,62.58l-1.39.78c-.32-1.14-.63-2.24-.93-3.31l2.26-1.43c0,1.3.02,2.62.06,3.96Z"/>
      <path class="cls-3" d="M329.37,250.41c-11.72,1.21-16.51,4.17-21.33,3.02-18.15-4.34-25.1-17.03-37.22-15.09-1.29.21-1.89.21-3.69,1.26v-.18c-17.1,8.84-32.96,33.86-55.98,29.68-22.65-4.13-30.71-16.85-40.62-26.26-3.21-2.59-6.97-4.27-11.8-6.43-18-8.04-51.13,43.18-84.33,33.09-18.88-5.73-32.91-22.35-39.53-41.36-.19-.54-.37-1.08-.55-1.62-.53-1.74-.99-3.51-1.38-5.31-2.52-11.44-2.35-23.92,1.03-33.77,13.83-40.41,67.96-32.77,69.83-52.12.33-3.38,1.81-11.72,3.79-19.71,1.03-6.48,2.99-13.11,6.61-18.78.13-.2.26-.38.41-.56l-.03-.02c21.4-23.22,59.51-33.09,78.21-19.69,17.79,12.76,26.29,31.55,35,43.3,4.65,6.27,13.19,15.37,21.76,7.78.16-.2.27-.37.35-.53,3.79-7.43,1.14-18.87-1.76-24.71-12.98-26.21-26.79-34.33-30.53-48.94-.83-3.25-3.59-13.52,4.67-22.41,3.98-4.26,5.44-18.42,5.44-18.42,0,0,3.28,12.05,1.58,20.4-.82,4.06-8.26,11.91-.15,19.48,20.99,19.58,38.37,28.25,47.97,61.78.92,3.22,3.09,12.31,1.95,20.96-1.78,13.51-8.35,16.57-11.42,19.34-.02-.01-.03-.03-.04-.04-4.31,3.71-9.24,6.24-11.74,7.44-12.1,5.84-25.15,5.21-36.03-3.8-7.05-5.84-30.11-45.44-40.3-48.31-2.13-.6-12.15-3.89-30.04,6.24l-1.49.88c-.29.29.31-.31,0,0l.23-.15c.42-.25.84-.49,1.25-.72h.02c-12.94,8.76-7.44,45.24-30.51,60.23-16,10.39-48.87,15.13-46.08,28.96.12.59.34,1.57.6,2.67l.17-.06c4.45,16.76,14.94,19.14,36.78,5.72,24.41-15,38.19-25.9,58.42-19.14,10.69,3.57,20.51,9.27,33.05,24.13,4.98,4.63,9.29,7.87,12.6,8.23,17.72,1.92,31.28-16.68,57.73-21.11.63-.18,1.17-.32,1.47-.38,37.52-7.28,43.01-2.34,51.54,4.6,6.12,4.97,27.52,13.72,25.21,25.73-2.79,14.53-18.35,14.41-21.12,14.69Z"/>
      <path class="cls-1" d="M381.1,62.58l-1.39.78c-.32-1.14-.63-2.24-.93-3.31l2.26-1.43c0,1.3.02,2.62.06,3.96Z"/>
      <g>
        <g>
          <path class="cls-3" d="M337.13,147.02c-4.41,0-8.49-1.14-12.24-3.43-3.75-2.29-6.74-5.36-8.97-9.21-2.22-3.86-3.34-8.07-3.34-12.64l.24-62.68c0-.33.16-.49.49-.49h14.08c.33,0,.49.16.49.49v62.68c0,2.82.9,5.21,2.69,7.19s3.98,2.97,6.55,2.97,4.94-.99,6.73-2.97,2.69-4.38,2.69-7.19v-62.68c0-.33.16-.49.49-.49h14.08c.33,0,.49.16.49.49l.24,62.68c0,4.61-1.1,8.86-3.31,12.73-2.24,3.84-5.22,6.89-8.94,9.15s-7.88,3.4-12.49,3.4Z"/>
          <path class="cls-3" d="M385.36,145.8h-12.55c-.65,0-.98-.29-.98-.86l-.12-85.39c0-.65.33-.98.98-.98h11.32l21.18,49.4-.61-48.42c0-.65.37-.98,1.1-.98h12.43c.49,0,.73.33.73.98l.12,85.51c0,.49-.2.73-.61.73h-11.02l-21.73-46.15.92,45.17c0,.65-.39.98-1.16.98Z"/>
          <path class="cls-3" d="M451.17,147.02c-4.45,0-8.55-1.14-12.3-3.43-3.71-2.29-6.68-5.34-8.91-9.15s-3.34-8.01-3.34-12.58v-5.75c0-.45.2-.67.61-.67h14.08c.33,0,.49.22.49.67v5.75c0,2.73.92,5.09,2.75,7.07s4.04,2.97,6.61,2.97,4.84-1.01,6.67-3.03,2.75-4.36,2.75-7.01c0-3.06-2-5.73-6-8.02-.65-.41-1.5-.91-2.54-1.5s-2.28-1.28-3.7-2.05-2.82-1.54-4.16-2.3-2.65-1.48-3.92-2.17c-4.57-2.69-7.97-6.07-10.19-10.13s-3.34-8.62-3.34-13.68c0-4.65,1.14-8.86,3.43-12.61,2.29-3.71,5.27-6.66,8.97-8.85,3.69-2.18,7.7-3.27,12.03-3.27s8.53,1.1,12.24,3.31c3.71,2.24,6.68,5.22,8.91,8.94,2.22,3.71,3.34,7.88,3.34,12.49v10.28c0,.33-.16.49-.49.49h-14.08c-.33,0-.49-.16-.49-.49l-.12-10.28c0-2.94-.92-5.33-2.75-7.16s-4.02-2.75-6.55-2.75-4.77.98-6.61,2.94-2.75,4.28-2.75,6.98.58,5.02,1.74,6.86,3.3,3.59,6.4,5.26c.33.16,1.08.57,2.26,1.22s2.5,1.38,3.95,2.17,2.76,1.51,3.95,2.14,1.9,1.01,2.14,1.13c4.16,2.33,7.46,5.18,9.89,8.57s3.64,7.55,3.64,12.49-1.1,9.06-3.31,12.85c-2.24,3.8-5.22,6.79-8.94,9s-7.84,3.31-12.36,3.31Z"/>
          <path class="cls-3" d="M525.48,145.8h-40.52c-.33,0-.49-.2-.49-.61l.12-86.12c0-.33.16-.49.49-.49h40.28c.33,0,.49.2.49.61v14.02c0,.33-.16.49-.49.49h-25.71v19.59h25.71c.33,0,.49.16.49.49l.12,14.2c0,.33-.16.49-.49.49h-25.83v21.91h25.83c.33,0,.49.2.49.61v14.32c0,.33-.16.49-.49.49Z"/>
          <path class="cls-3" d="M563.86,145.8h-14.14c-.37,0-.55-.2-.55-.61v-71.5h-16.28c-.41,0-.61-.2-.61-.61l.12-14.02c0-.33.16-.49.49-.49h47.62c.45,0,.67.16.67.49v14.02c0,.41-.16.61-.49.61h-16.47l.12,71.5c0,.41-.16.61-.49.61Z"/>
          <path class="cls-3" d="M613.99,145.8h-14.14c-.37,0-.55-.2-.55-.61v-71.5h-16.28c-.41,0-.61-.2-.61-.61l.12-14.02c0-.33.16-.49.49-.49h47.62c.45,0,.67.16.67.49v14.02c0,.41-.16.61-.49.61h-16.47l.12,71.5c0,.41-.16.61-.49.61Z"/>
          <path class="cls-3" d="M678.38,145.8h-40.52c-.33,0-.49-.2-.49-.61l.12-86c0-.41.2-.61.61-.61h13.96c.41,0,.61.2.61.61l-.12,71.19h25.83c.41,0,.61.2.61.61v14.2c0,.41-.2.61-.61.61Z"/>
          <path class="cls-3" d="M701.95,145.8h-14.2c-.41,0-.61-.2-.61-.61l.12-86.12c0-.33.16-.49.49-.49h14.08c.33,0,.49.16.49.49l.12,86.12c0,.41-.16.61-.49.61Z"/>
          <path class="cls-3" d="M727.11,145.8h-12.55c-.65,0-.98-.29-.98-.86l-.12-85.39c0-.65.33-.98.98-.98h11.32l21.18,49.4-.61-48.42c0-.65.37-.98,1.1-.98h12.43c.49,0,.73.33.73.98l.12,85.51c0,.49-.2.73-.61.73h-11.02l-21.73-46.15.92,45.17c0,.65-.39.98-1.16.98Z"/>
          <path class="cls-3" d="M794.56,147.02c-4.53,0-8.61-1.12-12.24-3.37-3.67-2.24-6.62-5.26-8.85-9.06-2.22-3.8-3.34-8.04-3.34-12.73v-39.73c0-4.57,1.12-8.73,3.37-12.49,2.2-3.8,5.16-6.83,8.88-9.09s7.77-3.4,12.18-3.4,8.77,1.1,12.49,3.31c3.71,2.24,6.66,5.24,8.85,9s3.27,7.98,3.27,12.67v5.75c0,.33-.2.49-.61.49h-14.08c-.33,0-.49-.16-.49-.49v-4.77c0-3.18-.9-5.82-2.69-7.9s-4.04-3.12-6.73-3.12c-2.41,0-4.55,1-6.43,3-1.88,2-2.82,4.35-2.82,7.04v39.73c0,2.73.92,5.09,2.75,7.07s4,2.97,6.49,2.97c2.69,0,4.94-.97,6.73-2.91,1.8-1.94,2.69-4.32,2.69-7.13v-6.18h-8.75c-.45,0-.67-.2-.67-.61v-14.02c0-.41.22-.61.67-.61h23.44c.33,0,.49.2.49.61v20.81c0,4.69-1.1,8.94-3.31,12.73-2.24,3.8-5.2,6.81-8.88,9.06s-7.81,3.37-12.43,3.37Z"/>
        </g>
        <g>
          <path class="cls-3" d="M419.99,244.43c-3.84,0-7.34-.97-10.52-2.9-3.14-1.94-5.64-4.54-7.49-7.8s-2.77-6.9-2.77-10.91l.1-33.13c0-3.94.9-7.5,2.7-10.68,1.8-3.21,4.28-5.8,7.44-7.75,3.16-1.95,6.68-2.93,10.55-2.93s7.45.95,10.52,2.85c3.11,1.9,5.59,4.47,7.44,7.7,1.85,3.23,2.77,6.83,2.77,10.81v4.87c0,.28-.14.41-.41.41h-11.92c-.28,0-.41-.14-.41-.41v-4.87c0-2.35-.76-4.37-2.28-6.07-1.52-1.69-3.42-2.54-5.7-2.54-2.52,0-4.46.86-5.81,2.59-1.35,1.73-2.02,3.73-2.02,6.01v33.13c0,2.59.76,4.71,2.28,6.35s3.37,2.46,5.55,2.46,4.18-.91,5.7-2.72c1.52-1.81,2.28-3.84,2.28-6.09v-4.92c0-.28.14-.41.41-.41h12.03c.28,0,.41.14.41.41v4.92c0,3.97-.93,7.6-2.8,10.89-1.9,3.25-4.41,5.85-7.52,7.8s-6.62,2.93-10.52,2.93Z"/>
          <path class="cls-3" d="M468.15,244.43c-3.77,0-7.24-.97-10.42-2.9-3.14-1.94-5.68-4.52-7.59-7.75s-2.88-6.78-2.88-10.65l.1-33.64c0-3.94.95-7.48,2.85-10.63,1.87-3.18,4.39-5.73,7.57-7.65,3.18-1.92,6.64-2.88,10.37-2.88s7.34.95,10.42,2.85c3.11,1.9,5.61,4.45,7.49,7.65,1.88,3.2,2.83,6.75,2.83,10.65l.1,33.64c0,3.87-.93,7.41-2.8,10.63-1.9,3.25-4.42,5.84-7.57,7.78-3.14,1.94-6.64,2.9-10.47,2.9ZM468.15,231.62c2.14,0,4.01-.87,5.6-2.62s2.38-3.71,2.38-5.88l-.1-33.64c0-2.35-.74-4.34-2.23-5.96-1.49-1.62-3.37-2.44-5.65-2.44s-4.04.79-5.6,2.38-2.33,3.59-2.33,6.01v33.64c0,2.32.78,4.31,2.33,5.99s3.42,2.51,5.6,2.51Z"/>
          <path class="cls-3" d="M509.41,243.39h-12.03c-.28,0-.41-.17-.41-.52l.21-72.94c0-.28.14-.41.41-.41h12.96c.28,0,.52.14.73.41l9.69,14,9.64-14c.21-.28.47-.41.78-.41h13.01c.31,0,.47.14.47.41l.21,72.94c0,.35-.14.52-.41.52h-12.03c-.28,0-.41-.17-.41-.52l-.1-54.17-11.15,16.17-11.04-16.17-.1,54.17c0,.35-.14.52-.41.52Z"/>
          <path class="cls-3" d="M566.38,243.39h-11.92c-.35,0-.52-.17-.52-.52l.21-72.94c0-.28.14-.41.41-.41h20.42c6.5,0,11.64,1.98,15.42,5.94,3.78,3.96,5.68,9.34,5.68,16.15,0,4.98-.98,9.31-2.95,13.01-2,3.66-4.6,6.5-7.78,8.5-3.18,2-6.64,3.01-10.37,3.01h-8.09v26.75c0,.35-.17.52-.52.52ZM574.99,182.11l-8.09.1v21.05h8.09c2.25,0,4.2-1.08,5.86-3.24s2.49-4.97,2.49-8.42c0-2.76-.74-5.04-2.23-6.82s-3.53-2.67-6.12-2.67Z"/>
          <path class="cls-3" d="M599.72,242.87l13.17-72.94c.07-.28.24-.41.52-.41h15.4c.28,0,.45.14.52.41l12.65,72.94c.03.35-.1.52-.41.52h-11.77c-.35,0-.54-.17-.57-.52l-1.14-7.78h-14.46l-1.14,7.78c-.03.35-.21.52-.52.52h-11.82c-.28,0-.41-.17-.41-.52ZM620.5,193.93l-4.77,29.81h10.21l-4.35-29.81-.62-3.94-.47,3.94Z"/>
          <path class="cls-3" d="M660.16,243.39h-10.63c-.55,0-.83-.24-.83-.73l-.1-72.32c0-.55.28-.83.83-.83h9.59l17.94,41.83-.52-41.01c0-.55.31-.83.93-.83h10.52c.41,0,.62.28.62.83l.1,72.42c0,.41-.17.62-.52.62h-9.33l-18.4-39.09.78,38.26c0,.55-.33.83-.98.83Z"/>
          <path class="cls-3" d="M717.86,243.39h-12.18c-.24,0-.36-.14-.36-.41l.1-30.17-14.2-42.87c-.07-.28.03-.41.31-.41h11.82c.35,0,.55.14.62.41l7.83,28.56,7.98-28.56c.07-.28.24-.41.52-.41h11.92c.28,0,.38.14.31.41l-14.36,42.46.1,30.59c0,.28-.14.41-.41.41Z"/>
        </g>
      </g>
    </g>
  </g>
</svg>